<?xml version="1.0" encoding="UTF-8" standalone="no"?>
<!-- Created with Inkscape (http://www.inkscape.org/) -->

<svg
   xmlns:dc="http://purl.org/dc/elements/1.1/"
   xmlns:cc="http://creativecommons.org/ns#"
   xmlns:rdf="http://www.w3.org/1999/02/22-rdf-syntax-ns#"
   xmlns:svg="http://www.w3.org/2000/svg"
   xmlns="http://www.w3.org/2000/svg"
   xmlns:sodipodi="http://sodipodi.sourceforge.net/DTD/sodipodi-0.dtd"
   xmlns:inkscape="http://www.inkscape.org/namespaces/inkscape"
   width="210mm"
   height="297mm"
   viewBox="0 0 210 297"
   version="1.1"
   id="svg8"
   inkscape:version="0.92.1 r15371"
   sodipodi:docname="drawing.svg">
  <defs
     id="defs2" />
  <sodipodi:namedview
     id="base"
     pagecolor="#ffffff"
     bordercolor="#666666"
     borderopacity="1.0"
     inkscape:pageopacity="0.0"
     inkscape:pageshadow="2"
     inkscape:zoom="2.8"
     inkscape:cx="151.54881"
     inkscape:cy="100.87634"
     inkscape:document-units="mm"
     inkscape:current-layer="layer1"
     showgrid="false"
     inkscape:window-width="1280"
     inkscape:window-height="987"
     inkscape:window-x="1366"
     inkscape:window-y="0"
     inkscape:window-maximized="1"
     showguides="true"
     inkscape:guide-bbox="true">
    <sodipodi:guide
       position="30.001859,28.773438"
       orientation="1,0"
       id="guide4515"
       inkscape:locked="false" />
  </sodipodi:namedview>
  <metadata
     id="metadata5">
    <rdf:RDF>
      <cc:Work
         rdf:about="">
        <dc:format>image/svg+xml</dc:format>
        <dc:type
           rdf:resource="http://purl.org/dc/dcmitype/StillImage" />
        <dc:title></dc:title>
      </cc:Work>
    </rdf:RDF>
  </metadata>
  <g
     inkscape:label="Layer 1"
     inkscape:groupmode="layer"
     id="layer1"
     style="display:inline">
    <path
       style="fill:#ffffff;stroke:#000000;stroke-width:0.06739617;stroke-miterlimit:4;stroke-dasharray:none;stroke-opacity:1"
       d="m 30.00023,249.6355 a 17.363758,17.363756 0 0 0 -3.36466,0.33332 l -0.003,-0.008 a 17.384023,17.384023 0 0 0 -1.34565,0.3085 l 0.006,0.0336 a 17.363758,17.363756 0 0 0 -3.99821,1.69189 l -0.009,-0.0129 a 17.384023,17.384023 0 0 0 -0.91829,0.58136 17.363758,17.363756 0 0 0 -0.19895,0.12609 17.384023,17.384023 0 0 0 -0.0501,0.0315 l 0.003,0.005 a 17.363758,17.363756 0 0 0 -3.22215,2.91092 l -0.0258,-0.0181 a 17.384023,17.384023 0 0 0 -0.36742,0.46561 17.363758,17.363756 0 0 0 -0.21342,0.27078 17.384023,17.384023 0 0 0 -0.27492,0.3483 l 0.0155,0.014 a 17.363758,17.363756 0 0 0 -2.12493,3.78581 l -0.0176,-0.005 a 17.384023,17.384023 0 0 0 -0.47336,1.29708 l 0.0331,0.0139 a 17.363758,17.363756 0 0 0 -0.78134,4.27106 l -0.007,5.3e-4 a 17.384023,17.384023 0 0 0 -0.046,0.91932 17.384023,17.384023 0 0 0 0.0165,0.46146 l 0.0274,0.002 a 17.363758,17.363756 0 0 0 0.6563,4.29173 l -0.0279,0.0109 a 17.384023,17.384023 0 0 0 0.43563,1.31 l 0.03,-0.008 a 17.363758,17.363756 0 0 0 2.0035,3.85247 l -0.005,0.004 a 17.384023,17.384023 0 0 0 0.82786,1.10588 l 0.0139,-0.009 a 17.363758,17.363756 0 0 0 3.16363,2.97447 l -0.0114,0.0191 a 17.384023,17.384023 0 0 0 0.60462,0.40463 17.363758,17.363756 0 0 0 0.39636,0.26511 17.384023,17.384023 0 0 0 0.14727,0.0987 l 0.007,-0.01 a 17.363758,17.363756 0 0 0 3.95428,1.79162 l -0.008,0.0372 a 17.384023,17.384023 0 0 0 1.33738,0.34314 l 0.009,-0.0264 a 17.363758,17.363756 0 0 0 3.80597,0.44442 17.363758,17.363756 0 0 0 0.51314,-0.0253 l 0.004,0.0274 a 17.384023,17.384023 0 0 0 1.02578,-0.0791 17.363758,17.363756 0 0 0 0.25993,-0.0197 17.384023,17.384023 0 0 0 0.092,-0.007 v -0.007 a 17.363758,17.363756 0 0 0 4.21938,-1.0237 l 0.0145,0.03 a 17.384023,17.384023 0 0 0 0.524,-0.22632 17.363758,17.363756 0 0 0 0.25218,-0.10904 17.384023,17.384023 0 0 0 0.49196,-0.2124 l -0.008,-0.0212 a 17.363758,17.363756 0 0 0 3.67316,-2.31614 l 0.01,0.01 a 17.384023,17.384023 0 0 0 1.03663,-0.91107 l -0.0238,-0.03 a 17.363758,17.363756 0 0 0 2.71353,-3.38841 l 0.0124,0.006 a 17.384023,17.384023 0 0 0 0.67645,-1.2051 l -0.003,-10e-4 a 17.363758,17.363756 0 0 0 1.44488,-4.09641 l 0.0294,0.004 a 17.384023,17.384023 0 0 0 0.10542,-0.60253 17.363758,17.363756 0 0 0 0.0703,-0.40256 17.384023,17.384023 0 0 0 0.062,-0.35555 l -0.0186,-0.004 a 17.363758,17.363756 0 0 0 0.18552,-2.39623 17.363758,17.363756 0 0 0 -0.11886,-1.94511 l 0.009,-0.002 a 17.384023,17.384023 0 0 0 -0.20309,-1.36684 l -0.0124,0.001 a 17.363758,17.363756 0 0 0 -1.36994,-4.12016 l 0.0217,-0.0129 a 17.384023,17.384023 0 0 0 -0.32453,-0.61444 17.363758,17.363756 0 0 0 -0.21446,-0.40566 17.384023,17.384023 0 0 0 -0.10645,-0.20154 l -0.0134,0.006 a 17.363758,17.363756 0 0 0 -2.62257,-3.45973 l 0.0232,-0.0274 a 17.384023,17.384023 0 0 0 -1.01028,-0.94051 l -0.0217,0.0207 a 17.363758,17.363756 0 0 0 -3.59409,-2.43758 l 0.002,-0.005 a 17.384023,17.384023 0 0 0 -1.25316,-0.58033 l -0.0103,0.0202 a 17.363758,17.363756 0 0 0 -4.19665,-1.11362 l 10e-4,-0.0207 a 17.384023,17.384023 0 0 0 -0.80254,-0.0765 17.363758,17.363756 0 0 0 -0.45733,-0.0434 17.384023,17.384023 0 0 0 -0.11576,-0.0109 l -0.001,0.007 a 17.363758,17.363756 0 0 0 -0.971,-0.0346 z m 0,2.55488 a 14.808819,14.808819 0 0 1 0.58446,0.0295 l -0.73898,4.87722 a 9.9077205,9.9077205 0 0 0 -1.06298,0.0817 l -1.41387,-4.74699 a 14.808819,14.808819 0 0 1 2.63137,-0.24133 z m 2.24069,0.18966 a 14.808819,14.808819 0 0 1 3.11195,0.82889 l -2.28409,4.37596 a 9.9077205,9.9077205 0 0 0 -1.03095,-0.27854 z m -6.48746,0.44493 0.88625,4.86327 a 9.9077205,9.9077205 0 0 0 -0.98289,0.41341 l -2.86855,-4.01629 a 14.808819,14.808819 0 0 1 2.96519,-1.26039 z m 11.1156,1.06764 a 14.808819,14.808819 0 0 1 2.68252,1.7911 l -3.59719,3.4122 a 9.9077205,9.9077205 0 0 0 -0.88316,-0.59428 z m -15.48484,1.0852 2.41122,4.30051 a 9.9077205,9.9077205 0 0 0 -0.79323,0.71521 l -4.01785,-2.86805 a 14.808819,14.808819 0 0 1 2.39986,-2.14767 z m 19.36987,1.85364 a 14.808819,14.808819 0 0 1 1.93994,2.57348 l -4.49275,2.05104 a 9.9077205,9.9077205 0 0 0 -0.64492,-0.84853 z m -22.81204,1.5906 3.68918,3.2954 a 9.9077205,9.9077205 0 0 0 -0.51831,0.92966 l -4.75269,-1.41438 a 14.808819,14.808819 0 0 1 1.58182,-2.81068 z m 25.52247,2.45721 a 14.808819,14.808819 0 0 1 1.00666,3.05873 l -4.90926,0.48059 a 9.9077205,9.9077205 0 0 0 -0.33073,-1.01648 z m -27.65722,1.92133 4.56147,1.91978 a 9.9077205,9.9077205 0 0 0 -0.19068,1.04852 l -4.93562,0.20413 a 14.808819,14.808819 0 0 1 0.56483,-3.17243 z m 28.91916,2.78121 a 14.808819,14.808819 0 0 1 0.0822,1.41751 14.808819,14.808819 0 0 1 -0.12351,1.80401 l -4.81056,-1.14152 a 9.9077205,9.9077205 0 0 0 0.0331,-0.66249 9.9077205,9.9077205 0 0 0 -0.0145,-0.4036 z m -14.72623,0.67593 a 0.74146592,0.74146592 0 0 1 0.74104,0.74158 0.74146592,0.74146592 0 0 1 -0.74104,0.74102 0.74146592,0.74146592 0 0 1 -0.74156,-0.74102 0.74146592,0.74146592 0 0 1 0.74156,-0.74158 z m -14.7867,1.37822 4.93665,0.33486 a 9.9077205,9.9077205 0 0 0 0.16278,1.05267 l -4.61263,1.80038 a 14.808819,14.808819 0 0 1 -0.4868,-3.18791 z m 24.27656,2.19419 4.89582,0.60978 a 14.808819,14.808819 0 0 1 -1.08727,3.03134 L 39.133,270.8373 a 9.9077205,9.9077205 0 0 0 0.35709,-1.00716 z m -18.4888,1.28571 a 9.9077205,9.9077205 0 0 0 0.49351,0.94361 l -3.77341,3.19617 a 14.808819,14.808819 0 0 1 -1.50637,-2.85096 z m 17.05168,1.64071 4.4359,2.16834 a 14.808819,14.808819 0 0 1 -2.00711,2.52026 l -3.09594,-3.85712 a 9.9077205,9.9077205 0 0 0 0.66715,-0.83148 z m -15.23318,1.06196 a 9.9077205,9.9077205 0 0 0 0.77411,0.73692 l -2.52284,4.23487 a 14.808819,14.808819 0 0 1 -2.34198,-2.21123 z m 12.92479,1.23764 3.5047,3.5042 a 14.808819,14.808819 0 0 1 -2.72645,1.72341 l -1.6769,-4.65658 a 9.9077205,9.9077205 0 0 0 0.89865,-0.57103 z M 25.4248,275.7781 a 9.9077205,9.9077205 0 0 0 0.971,0.43977 l -1.01441,4.84052 a 14.808819,14.808819 0 0 1 -2.93057,-1.33895 z m 7.39438,0.71107 2.16937,4.43743 a 14.808819,14.808819 0 0 1 -3.13262,0.74624 l -0.0739,-4.93253 a 9.9077205,9.9077205 0 0 0 1.03715,-0.25114 z m -4.29431,0.29454 a 9.9077205,9.9077205 0 0 0 1.05936,0.10234 l 0.61289,4.91492 a 14.808819,14.808819 0 0 1 -0.19689,0.007 14.808819,14.808819 0 0 1 -3.01429,-0.31316 z"
       id="path4485"
       inkscape:connector-curvature="0" />
  </g>
  <g
     inkscape:groupmode="layer"
     id="layer3"
     inkscape:label="Layer 2" />
</svg>
